<svg  viewBox="0 0 25 34" fill="none" xmlns="http://www.w3.org/2000/svg">
    <path d="M12.7729 13.7248L9.78632 12.763L5.65027 13.729L2.54824 14.6951L0.480202 16.6271L11.8544 0.204858L11.0205 6.96694L12.7729 13.7248Z" fill="#8F20A1"/>
    <path d="M12.2668 19.2747L15.4601 20.0032L19.566 18.709L22.612 17.4962L24.4654 15.3967L15.0705 32.7531L14.9937 25.9098L12.2668 19.2747Z" fill="#8F20A1"/>
    <path d="M21.0302 14.4902L15.8601 7.7281L14.0365 5.70475L14.0365 3.77272L13.1581 5.80859e-06L24.1323 14.4902L13.7921 18.3543L18.0759 10.6261L21.0302 14.4902Z" fill="#8F20A1"/>
    <path d="M4.07854 19.3931L9.77837 26.1733L11.7645 28.1954L11.8946 30.1685L13.0397 34L0.931852 19.4683L11.1606 15.2713L7.33558 23.2675L4.07854 19.3931Z" fill="#8F20A1"/>
</svg>